<svg width="791" height="748" viewBox="0 0 791 748" fill="none" xmlns="http://www.w3.org/2000/svg">
<path d="M0 1113L791 1113L791 -3.45757e-05L-4.86508e-05 0L0 1113ZM313.55 1106.34L313.55 1042.35L477.45 1042.35L477.451 1106.34L313.55 1106.34ZM483.151 1037.02L307.849 1037.02L307.849 1106.34L183.854 1106.34L183.854 901.063L607.146 901.063L607.146 1106.34L483.151 1106.34L483.151 1037.02ZM612.847 1106.34L612.847 895.732L504.672 895.732C492.287 879.475 475.903 866.241 456.903 857.148C437.903 848.054 416.843 843.367 395.5 843.481C374.157 843.367 353.097 848.054 334.097 857.148C315.097 866.241 298.713 879.475 286.328 895.732L178.153 895.732L178.153 1106.34L44.0395 1106.34C43.2824 1097.35 39.1691 1088.9 32.4202 1082.47C25.6713 1076.03 16.7171 1072.03 7.12612 1071.15L7.1261 559.832L260.816 559.832C262.812 626.479 322.386 682.462 395.5 682.462C468.614 682.462 528.189 626.479 530.184 559.832L783.874 559.832L783.874 1071.15C774.283 1072.03 765.329 1076.03 758.58 1082.47C751.831 1088.9 747.718 1097.35 746.961 1106.34L612.847 1106.34ZM295.164 895.732C319.25 866.407 356.306 850.145 395.5 850.145C434.694 850.145 471.75 866.407 495.836 895.732L295.164 895.732ZM385.381 559.832C386.949 562.498 390.797 566.497 395.5 566.497C400.203 566.497 404.051 562.498 405.619 559.832L523.058 559.832C521.062 623.813 464.623 675.798 395.5 675.798C326.377 675.798 269.938 623.813 267.942 559.832L385.381 559.832ZM405.619 553.168C404.9 551.192 403.537 549.476 401.723 548.26C399.908 547.045 397.732 546.392 395.5 546.392C393.268 546.392 391.092 547.045 389.277 548.26C387.463 549.476 386.1 551.192 385.381 553.168L267.942 553.168C267.942 521.528 281.381 491.184 305.303 468.812C329.225 446.439 361.67 433.87 395.5 433.87C429.33 433.87 461.775 446.439 485.697 468.812C509.619 491.184 523.058 521.528 523.058 553.168L405.619 553.168ZM530.184 553.168C530.184 519.76 515.994 487.721 490.736 464.099C465.478 440.476 431.22 427.205 395.5 427.205C359.78 427.205 325.522 440.476 300.264 464.099C275.006 487.721 260.816 519.76 260.816 553.168L7.1261 553.168L7.12608 40.5212C26.6517 38.9218 42.3291 23.9928 44.0394 6.66467L178.153 6.66467L178.153 215.935L286.328 215.935C298.791 232.12 315.19 245.301 334.172 254.393C353.153 263.484 374.174 268.225 395.5 268.225C416.826 268.225 437.847 263.484 456.828 254.393C475.81 245.301 492.209 232.12 504.672 215.935L612.847 215.935L612.847 6.66465L746.961 6.66464C748.671 23.9928 764.348 38.9217 783.874 40.5212L783.874 553.168L530.184 553.168ZM477.45 6.66465L477.45 69.3126L313.55 69.3126L313.55 6.66466L477.45 6.66465ZM307.849 74.6443L483.151 74.6443L483.151 6.66465L607.146 6.66465L607.146 210.604L183.854 210.604L183.854 6.66466L307.849 6.66466L307.849 74.6443ZM495.836 215.935C471.75 245.26 434.694 261.522 395.5 261.522C356.306 261.522 319.25 245.26 295.164 215.935L495.836 215.935ZM36.9133 6.66467C35.203 19.994 22.8036 32.2571 7.12608 33.8566L7.12608 6.66467L36.9133 6.66467ZM7.12613 1077.81C22.8036 1079.41 35.2031 1091.67 36.9133 1106.34L7.12613 1106.34L7.12613 1077.81ZM754.087 1106.34C755.797 1091.67 768.196 1079.41 783.874 1077.81L783.874 1106.34L754.087 1106.34ZM783.874 33.8565C768.196 32.257 755.797 19.994 754.087 6.66464L783.874 6.66464L783.874 33.8565ZM395.5 961.712C393.61 961.712 391.798 961.01 390.461 959.76C389.125 958.51 388.374 956.815 388.374 955.047C388.374 953.28 389.125 951.585 390.461 950.335C391.798 949.085 393.61 948.383 395.5 948.383C397.39 948.383 399.203 949.085 400.539 950.335C401.875 951.585 402.626 953.28 402.626 955.047C402.626 956.815 401.875 958.51 400.539 959.76C399.203 961.01 397.39 961.712 395.5 961.712ZM395.5 149.955C396.909 149.955 398.287 150.346 399.459 151.078C400.631 151.811 401.544 152.851 402.084 154.069C402.623 155.287 402.764 156.627 402.489 157.92C402.214 159.213 401.536 160.4 400.539 161.332C399.542 162.264 398.273 162.899 396.89 163.156C395.508 163.413 394.075 163.281 392.773 162.777C391.471 162.273 390.358 161.418 389.575 160.322C388.792 159.226 388.374 157.938 388.374 156.62C388.374 154.852 389.125 153.157 390.461 151.907C391.798 150.657 393.61 149.955 395.5 149.955Z" fill="white"/>
</svg>
